<svg width="940" height="450" viewBox="0 0 940 450" fill="none" xmlns="http://www.w3.org/2000/svg">
<path d="M97.0344 14.474H83.5565V1H27.9584V14.474H14.4814V43.105H27.9584V56.579H81.8715V81.842H29.6445V68.368H14.4814V83.526H27.9584V97H83.5565V83.526H97.0344V54.895H83.5565V41.421H56.6005H29.6445V16.158H81.8715V29.632H97.0344V14.474Z" fill="black"/>
<path d="M184.952 14.474H173.152V1H131.034V16.158H171.472V97H186.632V16.158H227.062V1H184.952V14.474Z" fill="black"/>
<path d="M261.062 1V81.5914H274.54L274.54 1H261.062Z" fill="black"/>
<path d="M330.137 1V81.5914H343.614L343.614 1H330.137Z" fill="black"/>
<path d="M330.138 97V81.5914H274.54V97H330.138Z" fill="black"/>
<path d="M597.243 97V16.4086H610.72L610.72 97H597.243Z" fill="black"/>
<path d="M666.318 97V16.4086H679.795L679.795 97H666.318Z" fill="black"/>
<path d="M666.318 1V16.4086H610.72V1H666.318Z" fill="black"/>
<path fill-rule="evenodd" clip-rule="evenodd" d="M446.689 14.474H460.168V43.106V54.894V83.526H446.689V97H377.614V54.895V43.105V1H446.689V14.474ZM392.777 81.842H445.005H444.34H392.777ZM392.777 81.842H445.005V16.158H392.777V81.842Z" fill="black"/>
<path d="M563.243 83.526V97H509.331V83.526H494.168V54.895V43.105V16.158H509.331V1H563.243V16.158H509.331V41.421H547.14V56.579H509.331V81.842V83.526H563.243Z" fill="black"/>
<path d="M755.308 1.09937H713.795V16.1402H753.86V96.9006H769.467V16.1402H809.532V1.09937H767.697V14.5642H755.308V1.09937Z" fill="black" stroke="black"/>
<path d="M926.085 14.474H912.607V1H857.009V14.474H843.532V43.105H857.009V56.579H910.922V81.842H858.695V68.368H843.532V83.526H857.009V97H912.607V83.526H926.085V54.895H912.607V41.421H885.651H858.695V16.158H910.922V29.632H926.085V14.474Z" fill="black"/>
<path d="M377.47 190.474V259.526H390.947L390.947 190.474H377.47Z" fill="black"/>
<path d="M446.544 190.474V259.526H460.021L460.021 190.474H446.544Z" fill="black"/>
<path d="M446.545 273V259.526H390.947V273H446.545Z" fill="black"/>
<path d="M446.545 190.474V177H390.947V190.474H446.545Z" fill="black"/>
<path d="M494.021 230.895V219.105V192.158H509.184V177H563.096V192.158H509.184V217.421H546.993V232.579H509.184V257.842V273H494.021V230.895Z" fill="black"/>
<path d="M42.5128 353.099H1V368.14H41.0647V448.901H56.6722V368.14H96.7369V353.099H54.9023V366.564H42.5128V353.099Z" fill="black" stroke="black"/>
<path d="M130.737 366.474V435.526H144.214L144.214 366.474H130.737Z" fill="black"/>
<path d="M199.812 366.474V435.526H213.289L213.289 366.474H199.812Z" fill="black"/>
<path d="M199.812 449V435.526H144.214V449H199.812Z" fill="black"/>
<path d="M199.812 366.474V353H144.214V366.474H199.812Z" fill="black"/>
<path d="M301.202 366.474H289.408V353H260.768V366.474H247.289V449H262.452V368.158H287.724V449H302.887V368.158H328.158V449H343.322V366.474H329.843V353H301.202V366.474Z" fill="black"/>
<path d="M377.322 366.474V435.526H390.799L390.799 366.474H377.322Z" fill="black"/>
<path d="M446.396 366.474V435.526H459.873L459.873 366.474H446.396Z" fill="black"/>
<path d="M446.397 449V435.526H390.799V449H446.397Z" fill="black"/>
<path d="M446.397 366.474V353H390.799V366.474H446.397Z" fill="black"/>
<path fill-rule="evenodd" clip-rule="evenodd" d="M562.948 366.474H576.427V395.106H562.948V406.894H576.427V449H561.264H493.873V406.895H507.352V395.105H493.873V353H562.948V366.474ZM509.036 449H561.264V408.579H509.036V449ZM509.036 393.421H561.264V368.158H509.036V393.421Z" fill="black"/>
<path fill-rule="evenodd" clip-rule="evenodd" d="M679.502 366.474H692.981V395.106H679.502V406.894H692.981V449H677.818H610.427V406.895H623.906V395.105H610.427V353H679.502V366.474ZM625.59 449H677.818V408.579H625.59V449ZM625.59 393.421H677.818V368.158H625.59V393.421Z" fill="black"/>
<path d="M726.981 366.474V435.526H740.458L740.458 366.474H726.981Z" fill="black"/>
<path d="M796.056 366.474V435.526H809.533L809.533 366.474H796.056Z" fill="black"/>
<path d="M796.056 449V435.526H740.458V449H796.056Z" fill="black"/>
<path d="M796.056 366.474V353H740.458V366.474H796.056Z" fill="black"/>
<path d="M897.446 435.526H885.652V449H857.012V435.526H843.533V353H858.696V433.842H883.968V353H899.131V433.842H924.402V353H939.566V435.526H926.087V449H897.446V435.526Z" fill="black"/>
</svg>
