<svg width="2196" height="98" viewBox="0 0 2196 98" fill="none" xmlns="http://www.w3.org/2000/svg">
<path d="M82.553 14.474H69.075V1H13.477V14.474H0V43.105H13.477V56.579H67.39V81.842H15.163V68.368H0V83.526H13.477V97H69.075V83.526H82.553V54.895H69.075V41.421H42.119H15.163V16.158H67.39V29.632H82.553V14.474Z" fill="black"/>
<path d="M170.471 14.474H158.671V1H116.553V16.158H156.991V97H172.151V16.158H212.581V1H170.471V14.474Z" fill="black"/>
<path d="M246.581 1V81.5914H260.058L260.058 1H246.581Z" fill="black"/>
<path d="M315.656 1V81.5914H329.133L329.133 1H315.656Z" fill="black"/>
<path d="M315.656 97V81.5914H260.058V97H315.656Z" fill="black"/>
<path d="M582.762 97V16.4086H596.239L596.239 97H582.762Z" fill="black"/>
<path d="M651.836 97V16.4086H665.313L665.313 97H651.836Z" fill="black"/>
<path d="M651.837 1V16.4086H596.239V1H651.837Z" fill="black"/>
<path fill-rule="evenodd" clip-rule="evenodd" d="M432.208 14.474H445.687V43.106V54.894V83.526H432.208V97H363.133V54.895V43.105V1H432.208V14.474ZM378.296 81.842H430.524H429.858H378.296ZM378.296 81.842H430.524V16.158H378.296V81.842Z" fill="black"/>
<path d="M548.762 83.526V97H494.85V83.526H479.687V54.895V43.105V16.158H494.85V1H548.762V16.158H494.85V41.421H532.658V56.579H494.85V81.842V83.526H548.762Z" fill="black"/>
<path d="M740.826 1.09937H699.313V16.1402H739.378V96.9006H754.986V16.1402H795.05V1.09937H753.216V14.5642H740.826V1.09937Z" fill="black" stroke="black"/>
<path d="M911.603 14.474H898.125V1H842.527V14.474H829.05V43.105H842.527V56.579H896.44V81.842H844.213V68.368H829.05V83.526H842.527V97H898.125V83.526H911.603V54.895H898.125V41.421H871.169H844.213V16.158H896.44V29.632H911.603V14.474Z" fill="black"/>
<path d="M991.603 14.474V83.526H1005.08L1005.08 14.474H991.603Z" fill="black"/>
<path d="M1060.68 14.474V83.526H1074.16L1074.15 14.474H1060.68Z" fill="black"/>
<path d="M1060.68 97V83.526H1005.08V97H1060.68Z" fill="black"/>
<path d="M1060.68 14.474V1H1005.08V14.474H1060.68Z" fill="black"/>
<path d="M1108.16 54.895V43.105V16.158H1123.32V1H1177.23V16.158H1123.32V41.421H1161.13V56.579H1123.32V81.842V97H1108.16V54.895Z" fill="black"/>
<path d="M1298.74 1.09937H1257.23V16.1402H1297.29V96.9006H1312.9V16.1402H1352.97V1.09937H1311.13V14.5642H1298.74V1.09937Z" fill="black" stroke="black"/>
<path d="M1386.97 14.474V83.526H1400.44L1400.44 14.474H1386.97Z" fill="black"/>
<path d="M1456.04 14.474V83.526H1469.52L1469.52 14.474H1456.04Z" fill="black"/>
<path d="M1456.04 97V83.526H1400.44V97H1456.04Z" fill="black"/>
<path d="M1456.04 14.474V1H1400.44V14.474H1456.04Z" fill="black"/>
<path d="M1557.43 14.474H1545.64V1H1517V14.474H1503.52V97H1518.68V16.158H1543.95V97H1559.12V16.158H1584.39V97H1599.55V14.474H1586.07V1H1557.43V14.474Z" fill="black"/>
<path d="M1633.55 14.474V83.526H1647.03L1647.03 14.474H1633.55Z" fill="black"/>
<path d="M1702.63 14.474V83.526H1716.1L1716.1 14.474H1702.63Z" fill="black"/>
<path d="M1702.63 97V83.526H1647.03V97H1702.63Z" fill="black"/>
<path d="M1702.63 14.474V1H1647.03V14.474H1702.63Z" fill="black"/>
<path fill-rule="evenodd" clip-rule="evenodd" d="M1819.18 14.474H1832.66V43.106H1819.18V54.894H1832.66V97H1817.49H1750.1V54.895H1763.58V43.105H1750.1V1H1819.18V14.474ZM1765.27 97H1817.49V56.579H1765.27V97ZM1765.27 41.421H1817.49V16.158H1765.27V41.421Z" fill="black"/>
<path fill-rule="evenodd" clip-rule="evenodd" d="M1935.73 14.474H1949.21V43.106H1935.73V54.894H1949.21V97H1934.05H1866.66V54.895H1880.14V43.105H1866.66V1H1935.73V14.474ZM1881.82 97H1934.05V56.579H1881.82V97ZM1881.82 41.421H1934.05V16.158H1881.82V41.421Z" fill="black"/>
<path d="M1983.21 14.474V83.526H1996.69L1996.69 14.474H1983.21Z" fill="black"/>
<path d="M2052.29 14.474V83.526H2065.76L2065.76 14.474H2052.29Z" fill="black"/>
<path d="M2052.29 97V83.526H1996.69V97H2052.29Z" fill="black"/>
<path d="M2052.29 14.474V1H1996.69V14.474H2052.29Z" fill="black"/>
<path d="M2153.68 83.526H2141.88V97H2113.24V83.526H2099.76V1H2114.93V81.842H2140.2V1H2155.36V81.842H2180.63V1H2195.8V83.526H2182.32V97H2153.68V83.526Z" fill="black"/>
</svg>
