<svg width="940" height="390" viewBox="0 0 940 390" fill="none" xmlns="http://www.w3.org/2000/svg">
<path d="M83.553 14.474H70.075V1H14.477V14.474H1V43.105H14.477V56.579H68.39V81.842H16.163V68.368H1V83.526H14.477V97H70.075V83.526H83.553V54.895H70.075V41.421H43.119H16.163V16.158H68.39V29.632H83.553V14.474Z" fill="black"/>
<path d="M171.471 14.474H159.671V1H117.553V16.158H157.991V97H173.151V16.158H213.581V1H171.471V14.474Z" fill="black"/>
<path d="M247.581 1V81.5914H261.058L261.058 1H247.581Z" fill="black"/>
<path d="M316.656 1V81.5914H330.133L330.133 1H316.656Z" fill="black"/>
<path d="M316.656 97V81.5914H261.058V97H316.656Z" fill="black"/>
<path d="M583.762 97V16.4086H597.239L597.239 97H583.762Z" fill="black"/>
<path d="M652.836 97V16.4086H666.313L666.313 97H652.836Z" fill="black"/>
<path d="M652.837 1V16.4086H597.239V1H652.837Z" fill="black"/>
<path fill-rule="evenodd" clip-rule="evenodd" d="M433.208 14.474H446.687V43.106V54.894V83.526H433.208V97H364.133V54.895V43.105V1H433.208V14.474ZM379.296 81.842H431.524H430.858H379.296ZM379.296 81.842H431.524V16.158H379.296V81.842Z" fill="black"/>
<path d="M549.762 83.526V97H495.85V83.526H480.687V54.895V43.105V16.158H495.85V1H549.762V16.158H495.85V41.421H533.658V56.579H495.85V81.842V83.526H549.762Z" fill="black"/>
<path d="M741.826 1.09937H700.313V16.1402H740.378V96.9006H755.986V16.1402H796.05V1.09937H754.216V14.5642H741.826V1.09937Z" fill="black" stroke="black"/>
<path d="M912.603 14.474H899.125V1H843.527V14.474H830.05V43.105H843.527V56.579H897.44V81.842H845.213V68.368H830.05V83.526H843.527V97H899.125V83.526H912.603V54.895H899.125V41.421H872.169H845.213V16.158H897.44V29.632H912.603V14.474Z" fill="black"/>
<path d="M1 160.474V229.526H14.4771L14.477 160.474H1Z" fill="black"/>
<path d="M70.0747 160.474V229.526H83.5518L83.5517 160.474H70.0747Z" fill="black"/>
<path d="M70.075 243V229.526H14.4771V243H70.075Z" fill="black"/>
<path d="M70.075 160.474V147H14.4771V160.474H70.075Z" fill="black"/>
<path d="M117.552 200.895V189.105V162.158H132.715V147H186.627V162.158H132.715V187.421H170.523V202.579H132.715V227.842V243H117.552V200.895Z" fill="black"/>
<path d="M42.5128 293.099H1V308.14H41.0647V388.901H56.6722V308.14H96.7369V293.099H54.9023V306.564H42.5128V293.099Z" fill="black" stroke="black"/>
<path d="M130.737 306.474V375.526H144.214L144.214 306.474H130.737Z" fill="black"/>
<path d="M199.812 306.474V375.526H213.289L213.289 306.474H199.812Z" fill="black"/>
<path d="M199.812 389V375.526H144.214V389H199.812Z" fill="black"/>
<path d="M199.812 306.474V293H144.214V306.474H199.812Z" fill="black"/>
<path d="M301.202 306.474H289.408V293H260.768V306.474H247.289V389H262.452V308.158H287.724V389H302.887V308.158H328.158V389H343.322V306.474H329.843V293H301.202V306.474Z" fill="black"/>
<path d="M377.322 306.474V375.526H390.799L390.799 306.474H377.322Z" fill="black"/>
<path d="M446.396 306.474V375.526H459.873L459.873 306.474H446.396Z" fill="black"/>
<path d="M446.397 389V375.526H390.799V389H446.397Z" fill="black"/>
<path d="M446.397 306.474V293H390.799V306.474H446.397Z" fill="black"/>
<path fill-rule="evenodd" clip-rule="evenodd" d="M562.948 306.474H576.427V335.106H562.948V346.894H576.427V389H561.264H493.873V346.895H507.352V335.105H493.873V293H562.948V306.474ZM509.036 389H561.264V348.579H509.036V389ZM509.036 333.421H561.264V308.158H509.036V333.421Z" fill="black"/>
<path fill-rule="evenodd" clip-rule="evenodd" d="M679.502 306.474H692.981V335.106H679.502V346.894H692.981V389H677.818H610.427V346.895H623.906V335.105H610.427V293H679.502V306.474ZM625.59 389H677.818V348.579H625.59V389ZM625.59 333.421H677.818V308.158H625.59V333.421Z" fill="black"/>
<path d="M726.981 306.474V375.526H740.458L740.458 306.474H726.981Z" fill="black"/>
<path d="M796.056 306.474V375.526H809.533L809.533 306.474H796.056Z" fill="black"/>
<path d="M796.056 389V375.526H740.458V389H796.056Z" fill="black"/>
<path d="M796.056 306.474V293H740.458V306.474H796.056Z" fill="black"/>
<path d="M897.446 375.526H885.652V389H857.012V375.526H843.533V293H858.696V373.842H883.968V293H899.131V373.842H924.402V293H939.566V375.526H926.087V389H897.446V375.526Z" fill="black"/>
</svg>
